Coordinates
version=1
nRows=19
nColumns=36
inDegrees=yes

Units are S.I. units (second, meters, Newtons, ...)
If the header above contains a line with 'inDegrees', this indicates whether rotational values are in degrees (yes) or radians (no).

endheader
time	pelvis_tilt	pelvis_list	pelvis_rotation	pelvis_tx	pelvis_ty	pelvis_tz	hip_flexion_r	hip_adduction_r	hip_rotation_r	knee_angle_r	knee_angle_r_beta	ankle_angle_r	subtalar_angle_r	mtp_angle_r	hip_flexion_l	hip_adduction_l	hip_rotation_l	knee_angle_l	knee_angle_l_beta	ankle_angle_l	subtalar_angle_l	mtp_angle_l	lumbar_extension	lumbar_bending	lumbar_rotation	arm_flex_r	arm_add_r	arm_rot_r	elbow_flex_r	pro_sup_r	arm_flex_l	arm_add_l	arm_rot_l	elbow_flex_l	pro_sup_l
      1.15000000	     -9.53382749	      0.93592823	     -0.08695876	      1.05431834	      0.89540396	     -0.24684130	     38.06845477	      1.08395359	      4.32609721	     21.60102293	      0.37700897	      4.95727548	     -2.50114506	     -7.17111646	      2.48945225	      4.76634753	     11.20279482	     10.47519477	      0.18282664	     15.58494758	     -6.32309185	     -7.17111646	    -10.21785902	    -19.01949381	    -11.41523136	     -4.67495907	    -16.51786988	     22.34266199	     40.15726611	    102.44473464	     10.31674547	    -16.17007048	      1.64880868	     47.10261352	    103.09410964
      1.16000000	     -9.72315294	      1.12476397	      0.19806571	      1.06416913	      0.89370077	     -0.24678031	     38.00787873	      0.79676141	      4.40608391	     18.65984173	      0.32567568	      5.60324943	     -2.09501776	     -7.17497713	      1.72671296	      4.91593515	     11.43695754	      9.98122606	      0.17420526	     15.82253210	     -6.06780607	     -7.17497713	     -9.97696186	    -18.89243874	    -11.46640967	     -4.53266210	    -16.33588341	     21.96122280	     39.85927653	    102.43018280	      9.91285302	    -16.30051740	      1.95643793	     46.82786581	    103.05234015
      1.17000000	     -9.96355518	      1.31640500	      0.49003615	      1.07413687	      0.89182620	     -0.24668710	     38.04793786	      0.46977535	      4.17769779	     15.97405384	      0.27879983	      6.23264993	     -1.60819344	     -7.17867628	      1.05431879	      5.04577709	     11.55136723	      9.54606574	      0.16661028	     16.02736107	     -5.73630462	     -7.17867628	     -9.64517481	    -18.76738374	    -11.48821391	     -4.43785898	    -16.17686532	     21.59748818	     39.63970480	    102.41871986	      9.47464183	    -16.40385190	      2.20341928	     46.53162439	    102.99694421
      1.18000000	    -10.26904901	      1.55978857	      0.77493631	      1.08419942	      0.88974159	     -0.24653327	     38.25350499	      0.08753513	      3.72407815	     13.65640223	      0.23834918	      6.82308584	     -1.24761659	     -7.18104327	      0.48409089	      5.22488472	     11.51816757	      9.17324933	      0.16010340	     16.20889503	     -5.45484839	     -7.18104327	     -9.24316147	    -18.69805375	    -11.46198352	     -4.41392568	    -16.04847799	     21.33569058	     39.50097472	    102.40690128	      8.99090871	    -16.48791962	      2.34480930	     46.24216885	    102.94722882
      1.19000000	    -10.21801972	      1.65701992	      1.07043415	      1.09467466	      0.88817530	     -0.24639042	     37.95325458	     -0.16895395	      3.16309811	     11.45525149	      0.19993186	      7.60014958	     -0.28456940	     -7.18810435	     -0.53749692	      5.19739853	     11.50108065	      8.75152154	      0.15274287	     16.62662976	     -4.57061070	     -7.18810435	     -9.24138444	    -18.39536157	    -11.44697347	     -4.25406103	    -15.84128488	     20.68346731	     39.13163354	    102.38545437	      8.58110973	    -16.53848097	      2.61961119	     45.69381165	    102.80157219
      1.20000000	    -10.36193304	      1.76668877	      1.36482055	      1.10517676	      0.88612573	     -0.24603440	     38.05324341	     -0.42384960	      2.25153790	      9.90313074	      0.17284224	      8.49592945	      0.79769858	     -7.20439803	     -1.22144651	      5.13908508	     11.00793171	      8.53814823	      0.14901880	     17.26438774	     -3.13241890	     -7.20439803	     -9.01587416	    -18.14052323	    -11.27518558	     -4.33006473	    -15.65655461	     19.86176340	     39.09565541	    102.45340952	      8.28746894	    -16.59593085	      2.97063835	     45.09339418	    102.51515328
      1.21000000	    -10.58379534	      1.93868912	      1.65395934	      1.11577298	      0.88386338	     -0.24573712	     38.27330865	     -0.66982138	      1.93705720	      8.81194908	      0.15379753	      8.94794223	      0.73282192	     -7.20642215	     -1.83205990	      5.21291181	     10.98765480	      8.34367720	      0.14562464	     17.34184017	     -2.89206692	     -7.20642215	     -8.67557973	    -17.93913502	    -11.26637493	     -4.25050410	    -15.55857403	     19.68164915	     39.04688170	    102.44701672	      7.71726362	    -16.63177209	      2.99145029	     44.65286026	    102.44970260
      1.22000000	    -10.49885721	      1.97173414	      1.93156519	      1.12675157	      0.88199754	     -0.24536630	     38.13484205	     -0.75601108	      1.67840729	      8.14674075	      0.14218745	      9.36659068	      0.46035321	     -7.22647786	     -2.77033465	      5.06017095	     10.59771799	      8.21190907	      0.14332485	     17.95143611	     -1.38070596	     -7.22647786	     -8.67179838	    -17.52163703	    -11.11082734	     -4.22877827	    -15.35227257	     18.76500611	     38.92243876	    102.47329426	      7.40744166	    -16.57337451	      3.14225677	     43.80454781	    102.16375088
      1.23000000	    -10.55523522	      2.11744160	      2.17768163	      1.13767705	      0.87982425	     -0.24501416	     38.30228219	     -0.94528612	      1.61950760	      8.15763863	      0.14237765	      9.45303204	      0.33179326	     -7.22683271	     -3.46231899	      5.12562226	     10.59471057	      8.31443366	      0.14511424	     17.95080437	     -1.33891654	     -7.22683271	     -8.52753711	    -17.23756942	    -10.91337118	     -4.20645448	    -15.36361501	     18.70984761	     38.89994769	    102.46699525	      6.86362738	    -16.53906418	      3.15901456	     43.54640276	    102.13944017
      1.24000000	    -10.39748681	      2.02392516	      2.48453448	      1.14906389	      0.87797083	     -0.24461090	     38.28605390	     -0.90351344	      1.30286185	      8.79584222	      0.15351641	     10.02293639	     -0.93485358	     -7.23126120	     -4.56840514	      4.85615518	     10.78399317	      8.04007074	      0.14032571	     18.09807645	     -0.79889597	     -7.23126120	     -8.55179110	    -16.65344835	    -10.97401185	     -3.94568550	    -15.17864908	     18.11700170	     38.63077891	    102.38858144	      6.43281865	    -16.43726522	      2.93107220	     42.39806722	    101.97790914
      1.25000000	    -10.25845400	      1.96644926	      2.69405824	      1.16049353	      0.87605024	     -0.24416712	     38.35012057	     -0.86292620	      1.29211130	      9.87960029	      0.17243155	     10.04120674	     -1.73039896	     -7.23335533	     -5.48240542	      4.67257837	     10.75076736	      8.14654727	      0.14218407	     18.16020557	     -0.63842517	     -7.23335533	     -8.56215471	    -16.05522059	    -10.84333504	     -3.77853204	    -15.15038959	     17.75448517	     38.60028414	    102.34278747	      5.84281579	    -16.36269283	      2.86838869	     41.72114422	    101.89549909
      1.26000000	    -10.14055355	      1.87562808	      2.85000037	      1.17207595	      0.87411719	     -0.24364166	     38.34609897	     -0.64130254	      2.03432391	     11.05659878	      0.19297405	      8.99013003	     -4.61657006	     -7.24854209	     -6.25210402	      4.45258828	     10.46524739	      8.50572892	      0.14845297	     18.48764947	      0.06338802	     -7.24854209	     -8.49348564	    -15.38576141	    -10.24158232	     -4.10136067	    -14.90593406	     15.91730997	     38.85010078	    102.13838869	      5.68070148	    -16.04281601	      2.92463806	     40.50890368	    101.69059853
      1.27000000	     -9.93830537	      1.71686141	      3.03448693	      1.18390903	      0.87239870	     -0.24319565	     38.34866651	     -0.49057465	      1.86839475	     12.63484644	      0.22051967	      8.66424292	     -5.52876201	     -7.25196378	     -7.08207915	      4.18196554	     10.47544617	      8.93846791	      0.15600570	     18.37997153	      0.07316981	     -7.25196378	     -8.50991763	    -14.62896261	     -9.94576983	     -4.01124788	    -14.94130499	     15.53693626	     38.80085521	    102.09842669	      5.12283637	    -15.88836537	      2.90542028	     39.79376618	    101.59492158
      1.28000000	     -9.80519474	      1.52286003	      3.16883034	      1.19583780	      0.87071239	     -0.24263886	     38.27984363	     -0.17345908	      2.31978833	     13.99374616	      0.24423695	      7.14570327	     -7.83033991	     -7.26700095	     -7.69711801	      3.88757819	     10.35220574	      9.62973470	      0.16807058	     18.31822358	      0.05738987	     -7.26700095	     -8.40506349	    -13.80400084	     -9.25131372	     -4.35818679	    -14.76757436	     13.95055228	     39.03133486	    101.97735750	      4.88236152	    -15.55882831	      3.02697235	     38.63574520	    101.38127008
      1.29000000	     -9.61749865	      1.30029154	      3.29595820	      1.20802061	      0.86929765	     -0.24209799	     38.19813167	      0.05201206	      1.89315843	     15.47311370	      0.27005678	      6.23432825	     -8.41596667	     -7.27016611	     -8.28645641	      3.56826091	     10.17865320	     10.48289312	      0.18296100	     18.06199510	     -0.12174525	     -7.27016611	     -8.34963627	    -12.94063463	     -8.82068776	     -4.33502548	    -14.78910422	     13.55410174	     38.90904360	    101.94174787	      4.31589132	    -15.29786361	      2.85770368	     37.79735803	    101.25953242
      1.30000000	     -9.46216496	      1.03272686	      3.41050692	      1.22028633	      0.86805774	     -0.24153838	     38.07571718	      0.32405610	      1.49319995	     16.78035189	      0.29287239	      5.06534976	     -8.87862256	     -7.27261779	     -8.70756012	      3.19813040	      9.96348781	     11.55617032	      0.20169322	     17.69913356	     -0.34305815	     -7.27261779	     -8.25948477	    -11.99455331	     -8.31345319	     -4.36457936	    -14.81103757	     13.06331537	     38.74977627	    101.88956839	      3.79731575	    -14.95976802	      2.57445926	     36.91766293	    101.12999833
      1.31000000	     -9.43573989	      0.69156361	      3.50061184	      1.23267406	      0.86698924	     -0.24086179	     38.00344242	      0.67581664	      1.02020284	     17.87392011	      0.31195876	      3.40378293	     -9.43507124	     -7.27655867	     -8.84005655	      2.75455935	      9.74321720	     12.86371057	      0.22451410	     17.16781725	     -0.52977273	     -7.27655867	     -7.99569295	    -10.96845692	     -7.64761265	     -4.52970168	    -14.73710439	     12.20118856	     38.60446859	    101.81157706	      3.34778405	    -14.48015048	      2.07324514	     35.78138203	    100.94928569
      1.32000000	     -9.26689726	      0.35647951	      3.51481747	      1.24516490	      0.86638738	     -0.24003801	     37.73425085	      1.09725112	      0.88251492	     18.97840861	      0.33123572	      2.52360522	     -9.51777611	     -7.27802772	     -9.12593747	      2.30796751	      9.70013993	     14.15979001	      0.24713496	     16.53004823	     -0.60671395	     -7.27802772	     -7.89771384	     -9.94464758	     -7.02528184	     -4.51585380	    -14.77537456	     11.81213276	     38.45406178	    101.77246187	      2.72958698	    -14.18031457	      1.83567929	     35.15323504	    100.85704887
      1.33000000	     -9.14023088	     -0.04699488	      3.48170616	      1.25766997	      0.86616527	     -0.23908542	     37.51429060	      1.58595560	      0.59791356	     20.11118298	      0.35100636	      1.66110670	     -9.50997469	     -7.27913268	     -9.19993513	      1.79806780	      9.59175762	     15.66990363	      0.27349141	     15.67974395	     -0.67271631	     -7.27913268	     -7.83942784	     -8.81473483	     -6.34273310	     -4.47144308	    -14.79490651	     11.45081079	     38.25886347	    101.73166207	      2.08821936	    -13.84013401	      1.54108787	     34.46136653	    100.74923639
